<svg width="400" height="400" viewBox="0 0 400 400" xmlns="http://www.w3.org/2000/svg">
  <!-- Background Circle -->
  <circle cx="200" cy="200" r="195" fill="#10B981" stroke="#059669" stroke-width="5"/>

  <!-- Inner Circle -->
  <circle cx="200" cy="200" r="170" fill="#ECFDF5"/>

  <!-- Electric Car Icon -->
  <g transform="translate(120, 150)">
    <!-- Car Body -->
    <path d="M 10 35 L 15 20 L 35 20 L 40 15 L 80 15 L 85 20 L 105 20 L 110 35 L 130 35 L 130 60 L 120 65 L 20 65 L 10 60 Z"
          fill="#047857" stroke="#065F46" stroke-width="2"/>

    <!-- Windows -->
    <path d="M 40 20 L 45 25 L 65 25 L 70 20 Z" fill="#DBEAFE" opacity="0.7"/>
    <path d="M 75 20 L 80 25 L 95 25 L 100 20 Z" fill="#DBEAFE" opacity="0.7"/>

    <!-- Wheels -->
    <circle cx="35" cy="65" r="12" fill="#1F2937" stroke="#374151" stroke-width="2"/>
    <circle cx="35" cy="65" r="6" fill="#6B7280"/>
    <circle cx="105" cy="65" r="12" fill="#1F2937" stroke="#374151" stroke-width="2"/>
    <circle cx="105" cy="65" r="6" fill="#6B7280"/>

    <!-- Lightning Bolt (Electric Symbol) -->
    <path d="M 72 35 L 65 50 L 70 50 L 63 65 L 75 48 L 70 48 Z"
          fill="#FBBF24" stroke="#F59E0B" stroke-width="1.5"/>
  </g>

  <!-- Leaf Icon (Green/Eco Symbol) -->
  <g transform="translate(260, 100)">
    <path d="M 20 60 Q 10 30, 20 10 Q 30 0, 40 10 Q 50 30, 40 60 Q 30 50, 20 60 Z"
          fill="#34D399" stroke="#10B981" stroke-width="2"/>
    <path d="M 30 15 Q 30 40, 30 55"
          stroke="#10B981" stroke-width="2" fill="none"/>
  </g>

  <!-- Brand Name -->
  <text x="200" y="270" font-family="Arial, sans-serif" font-size="32" font-weight="bold"
        text-anchor="middle" fill="#047857">GreenEVCabs</text>

  <!-- Tagline -->
  <text x="200" y="295" font-family="Arial, sans-serif" font-size="14"
        text-anchor="middle" fill="#059669">Premium • Electric • Affordable</text>
</svg>